<svg width="16" height="16" viewBox="0 0 16 16" fill="none" xmlns="http://www.w3.org/2000/svg">
<path d="M9.99667 7.32999L10 7.32666L10.0033 7.32999L10 7.33333L9.99667 7.32999Z" stroke="white" stroke-width="1.5" stroke-linecap="round" stroke-linejoin="round"/>
<path d="M7.99667 7.32999L8.00001 7.32666L8.00334 7.32999L8.00001 7.33333L7.99667 7.32999Z" stroke="white" stroke-width="1.5" stroke-linecap="round" stroke-linejoin="round"/>
<path d="M2 13.6667C2.00011 13.7291 2.01775 13.7902 2.0509 13.8431C2.08406 13.896 2.1314 13.9385 2.18754 13.9658C2.24367 13.9931 2.30635 14.0041 2.36843 13.9976C2.43051 13.991 2.48949 13.9671 2.53867 13.9287L5 12H12C12.5304 12 13.0391 11.7893 13.4142 11.4142C13.7893 11.0391 14 10.5304 14 10V4C14 3.46957 13.7893 2.96086 13.4142 2.58579C13.0391 2.21071 12.5304 2 12 2H4C3.46957 2 2.96086 2.21071 2.58579 2.58579C2.21071 2.96086 2 3.46957 2 4V13.6667Z" stroke="white" stroke-width="1.5" stroke-linecap="round" stroke-linejoin="round"/>
<path d="M5.99667 7.32999L6.00001 7.32666L6.00334 7.32999L6.00001 7.33333L5.99667 7.32999Z" stroke="white" stroke-width="1.5" stroke-linecap="round" stroke-linejoin="round"/>
</svg>
