<svg width="24" height="24" viewBox="0 0 24 24" fill="none" xmlns="http://www.w3.org/2000/svg">
<path d="M20.0952 7H8.30519C7.69492 7 7.2002 7.49472 7.2002 8.105V19.895C7.2002 20.5053 7.69492 21 8.30519 21H20.0952C20.7055 21 21.2002 20.5053 21.2002 19.895V8.105C21.2002 7.49472 20.7055 7 20.0952 7Z" stroke="white" stroke-width="1.5" stroke-linecap="round" stroke-linejoin="round"/>
<path d="M7.2002 17H5.2002C4.66976 17 4.16105 16.7893 3.78598 16.4142C3.41091 16.0391 3.2002 15.5304 3.2002 15V5C3.2002 4.46957 3.41091 3.96086 3.78598 3.58579C4.16105 3.21071 4.66976 3 5.2002 3H15.2002C15.7306 3 16.2393 3.21071 16.6144 3.58579C16.9895 3.96086 17.2002 4.46957 17.2002 5V7" stroke="white" stroke-width="1.5" stroke-linecap="round" stroke-linejoin="round"/>
</svg>
