<svg width="16" height="16" viewBox="0 0 16 16" fill="none" xmlns="http://www.w3.org/2000/svg">
<path d="M5.33335 8.00001C6.61833 8.00001 7.66002 6.95833 7.66002 5.67335C7.66002 4.38836 6.61833 3.34668 5.33335 3.34668C4.04837 3.34668 3.00668 4.38836 3.00668 5.67335C3.00668 6.95833 4.04837 8.00001 5.33335 8.00001Z" stroke="white" stroke-width="1.5" stroke-linecap="round" stroke-linejoin="round"/>
<path d="M11.3334 8.00002C12.2538 8.00002 13 7.25383 13 6.33335C13 5.41288 12.2538 4.66669 11.3334 4.66669C10.4129 4.66669 9.66669 5.41288 9.66669 6.33335C9.66669 7.25383 10.4129 8.00002 11.3334 8.00002Z" stroke="white" stroke-width="1.5" stroke-linecap="round" stroke-linejoin="round"/>
<path d="M1.33334 13.3333V12.6553C1.33334 11.1887 2.52201 10 3.98868 10H6.67801C8.14468 10 9.33334 11.1887 9.33334 12.6553V13.3333" stroke="white" stroke-width="1.5" stroke-linecap="round" stroke-linejoin="round"/>
<path d="M11.3333 10H12.068C13.5347 10 14.7233 11.1887 14.7233 12.6553V13.3333" stroke="white" stroke-width="1.5" stroke-linecap="round" stroke-linejoin="round"/>
</svg>
