<svg width="16" height="20" viewBox="0 0 16 20" fill="none" xmlns="http://www.w3.org/2000/svg">
<g id="Group">
<path id="Vector" d="M9.48871 1.54769C8.30363 6.75328 13.2108 6.94641 14.589 10.528C15.5721 12.8806 14.905 15.5844 13.0791 17.2786C11.42 18.7972 9.11124 19.1923 6.97809 18.9201C5.48576 18.727 1.33358 17.2171 1 12.3012C1 10.0803 1.60571 8.60552 2.20264 7.69257C2.45721 7.3151 3.05415 7.53456 3.00148 7.99104C2.86102 9.22879 3.02781 10.9581 4.6167 12.1608C4.95906 12.4241 5.43309 12.0467 5.27508 11.6428C3.35261 6.70939 5.64377 2.94346 8.83033 1.06488C9.16391 0.862976 9.5765 1.16144 9.48871 1.54769Z" stroke="white" stroke-width="1.5"/>
</g>
</svg>
