<svg width="24" height="24" viewBox="0 0 24 24" fill="none" xmlns="http://www.w3.org/2000/svg">
<g id="Group">
<g id="Layer 2">
<path id="Vector" d="M18.326 17.993C21.2921 17.1068 20.9173 13.1988 22.3241 11.7098C21.452 11.0466 20.4342 10.601 19.3553 10.4101C18.2764 10.2191 17.1675 10.2883 16.1207 10.6119" stroke="#0A0A0A" stroke-width="1.5" stroke-linecap="round" stroke-linejoin="round"/>
<path id="Vector_2" d="M18.3259 17.993C17.3471 18.2854 16.2922 18.1771 15.3933 17.6917C14.4944 17.2064 13.8251 16.3839 13.5327 15.4051C13.2403 14.4263 13.3486 13.3714 13.834 12.4725C14.3193 11.5736 15.1418 10.9043 16.1206 10.6118" stroke="#0A0A0A" stroke-width="1.5" stroke-linecap="round" stroke-linejoin="round"/>
<path id="Vector_3" d="M17.4164 13.9552C16.428 14.4403 15.5531 15.1285 14.8489 15.9749C14.1447 16.8213 13.6272 17.8069 13.3301 18.8671" stroke="#0A0A0A" stroke-width="1.5" stroke-linecap="round" stroke-linejoin="round"/>
<g id="Group 54">
<path id="Vector_4" d="M5.26869 13.8367C2.2062 12.0686 3.65466 7.82412 2.48434 5.79775C3.62877 5.29099 4.87759 5.06456 6.12709 5.13723C7.3766 5.20991 8.59074 5.57961 9.66871 6.21564" stroke="#0A0A0A" stroke-width="1.5" stroke-linecap="round" stroke-linejoin="round"/>
<path id="Vector_5" d="M5.26938 13.8366C6.27999 14.42 7.481 14.5782 8.60819 14.2761C9.73539 13.9741 10.6964 13.2367 11.2799 12.2261C11.8634 11.2154 12.0215 10.0144 11.7195 8.88724C11.4174 7.76004 10.68 6.799 9.66939 6.21552" stroke="#0A0A0A" stroke-width="1.5" stroke-linecap="round" stroke-linejoin="round"/>
<path id="Vector_6" d="M7.25576 10.1113C8.10532 10.8117 8.79745 11.6835 9.28688 12.6698C10.1538 14.4168 10.5923 17.4647 10.6363 18.5648" stroke="#0A0A0A" stroke-width="1.5" stroke-linecap="round" stroke-linejoin="round"/>
</g>
</g>
</g>
</svg>
