<svg width="16" height="16" viewBox="0 0 16 16" fill="none" xmlns="http://www.w3.org/2000/svg">
<g id="Group">
<g id="Layer 2">
<path id="Vector" d="M12.2173 11.9953C14.1947 11.4045 13.9448 8.79915 14.8827 7.80647C14.3013 7.36435 13.6228 7.0673 12.9035 6.94001C12.1842 6.81271 11.445 6.85883 10.7471 7.07454" stroke="#BBFF2A" stroke-width="1.5" stroke-linecap="round" stroke-linejoin="round"/>
<path id="Vector_2" d="M12.2173 11.9953C11.5648 12.1903 10.8615 12.118 10.2622 11.7945C9.66296 11.4709 9.21677 10.9226 9.02181 10.27C8.82685 9.61748 8.89909 8.91423 9.22265 8.31496C9.5462 7.71569 10.0946 7.2695 10.7471 7.07454" stroke="#BBFF2A" stroke-width="1.5" stroke-linecap="round" stroke-linejoin="round"/>
<path id="Vector_3" d="M11.611 9.30353C10.952 9.62688 10.3687 10.0857 9.89927 10.65C9.42983 11.2143 9.0848 11.8713 8.88677 12.5781" stroke="#BBFF2A" stroke-width="1.5" stroke-linecap="round" stroke-linejoin="round"/>
<g id="Group 54">
<path id="Vector_4" d="M3.51246 9.22446C1.4708 8.0457 2.43644 5.21608 1.65622 3.86517C2.41918 3.52733 3.25173 3.37637 4.08473 3.42482C4.91773 3.47327 5.72716 3.71974 6.44581 4.14376" stroke="#BBFF2A" stroke-width="1.5" stroke-linecap="round" stroke-linejoin="round"/>
<path id="Vector_5" d="M3.51291 9.22438C4.18665 9.61337 4.98732 9.71878 5.73879 9.51742C6.49025 9.31607 7.13095 8.82444 7.51993 8.1507C7.90892 7.47696 8.01433 6.67629 7.81297 5.92482C7.61162 5.17336 7.12 4.53267 6.44625 4.14368" stroke="#BBFF2A" stroke-width="1.5" stroke-linecap="round" stroke-linejoin="round"/>
<path id="Vector_6" d="M4.83717 6.74083C5.40354 7.20775 5.86496 7.78897 6.19125 8.44649C6.76919 9.61113 7.06155 11.6431 7.09084 12.3765" stroke="#BBFF2A" stroke-width="1.5" stroke-linecap="round" stroke-linejoin="round"/>
</g>
</g>
</g>
</svg>
