<svg width="24" height="24" viewBox="0 0 24 24" fill="none" xmlns="http://www.w3.org/2000/svg">
<g id="Group">
<g id="Group_2">
<path id="Vector" d="M16.448 6H7.552C7.24714 6 7 6.24714 7 6.552V8.448C7 8.75286 7.24714 9 7.552 9H16.448C16.7529 9 17 8.75286 17 8.448V6.552C17 6.24714 16.7529 6 16.448 6Z" stroke="white" stroke-width="1.5" stroke-linecap="round" stroke-linejoin="round"/>
<path id="Vector_2" d="M8.08201 9L5.48501 11.969C4.7007 12.8654 4.20095 13.975 4.0494 15.1564C3.89784 16.3378 4.10135 17.5376 4.63401 18.603L4.72701 18.789C5.05918 19.4533 5.56975 20.012 6.20152 20.4025C6.83328 20.793 7.56129 20.9999 8.30401 21H15.707C16.4499 21.0001 17.1781 20.7933 17.8101 20.4027C18.442 20.0122 18.9528 19.4534 19.285 18.789L19.366 18.626C19.9015 17.5552 20.1044 16.3487 19.9487 15.1617C19.7929 13.9747 19.2856 12.8614 18.492 11.965L15.866 9" stroke="white" stroke-width="1.5" stroke-linecap="round" stroke-linejoin="round"/>
<path id="Vector_3" d="M15.451 6L16.247 4.459C16.3258 4.30652 16.364 4.13634 16.3579 3.96482C16.3519 3.7933 16.3018 3.62622 16.2125 3.47966C16.1232 3.3331 15.9977 3.21199 15.848 3.12799C15.6984 3.04398 15.5296 2.9999 15.358 3H8.642C8.47037 2.9999 8.30161 3.04398 8.15195 3.12799C8.00229 3.21199 7.87678 3.3331 7.78747 3.47966C7.69817 3.62622 7.64809 3.7933 7.64205 3.96482C7.63601 4.13634 7.67422 4.30652 7.753 4.459L8.55 6" stroke="white" stroke-width="1.5" stroke-linecap="round" stroke-linejoin="round"/>
<path id="Vector_4" d="M12.3633 12.955V12.5" stroke="white" stroke-width="1.5" stroke-linecap="round" stroke-linejoin="round"/>
<path id="Vector_5" d="M12.3633 17.046V17.501" stroke="white" stroke-width="1.5" stroke-linecap="round" stroke-linejoin="round"/>
<path id="Vector_6" d="M11.1792 16.558C11.2651 16.7057 11.388 16.8285 11.5358 16.9143C11.6837 17 11.8513 17.0458 12.0222 17.047H12.7692C13.0032 17.0475 13.2292 16.9623 13.4046 16.8075C13.5801 16.6527 13.6927 16.439 13.7213 16.2068C13.7498 15.9746 13.6923 15.74 13.5597 15.5473C13.427 15.3546 13.2283 15.2171 13.0012 15.161L11.7232 14.84C11.497 14.783 11.2994 14.6453 11.1676 14.4529C11.0357 14.2605 10.9787 14.0266 11.0072 13.7951C11.0357 13.5635 11.1477 13.3504 11.3223 13.1957C11.4969 13.041 11.7219 12.9554 11.9552 12.955H12.7042C12.8746 12.956 13.0418 13.0015 13.1893 13.0869C13.3368 13.1723 13.4595 13.2947 13.5452 13.442" stroke="white" stroke-width="1.5" stroke-linecap="round" stroke-linejoin="round"/>
</g>
</g>
</svg>
