<svg width="40" height="40" viewBox="0 0 40 40" fill="none" xmlns="http://www.w3.org/2000/svg">
<path d="M28.3333 10H31.6667H35" stroke="#666666" stroke-width="2" stroke-linecap="round"/>
<path d="M31.6667 6.6665V13.3332" stroke="#666666" stroke-width="2" stroke-linecap="round"/>
<path d="M12.5661 24.7636L14.8393 19.9536C15.1962 19.1985 16.1516 18.9536 16.8277 19.4441L19.1291 21.1137C19.778 21.5844 20.6926 21.3802 21.0797 20.6782L22.9807 17.2304C23.5003 16.2882 24.8644 16.3177 25.3427 17.2815L29.0442 24.7406C29.484 25.6269 28.8393 26.6667 27.8499 26.6667H13.7715C12.7932 26.6667 12.148 25.6481 12.5661 24.7636Z" stroke="#666666" stroke-width="2" stroke-linecap="round"/>
<path d="M23.5135 6.6665H9.72973C8.70871 6.6665 6.66667 7.29395 6.66667 9.80376C6.66667 12.3136 6.66667 24.9672 6.66667 30.9802C6.66667 31.7645 7.27928 33.3332 9.72973 33.3332C12.1802 33.3332 26.0661 33.3332 32.7027 33.3332C33.4685 33.3332 35 32.7057 35 30.1959C35 27.6861 35 19.7384 35 16.0783" stroke="#666666" stroke-width="2" stroke-linecap="round"/>
</svg>
